Coordinates
version=1
nRows=19
nColumns=24
inDegrees=yes

Units are S.I. units (second, meters, Newtons, ...)
Angles are in degrees.

endheader
time	pelvis_tilt	pelvis_list	pelvis_rotation	pelvis_tx	pelvis_ty	pelvis_tz	hip_flexion_r	hip_adduction_r	hip_rotation_r	knee_angle_r	ankle_angle_r	subtalar_angle_r	mtp_angle_r	hip_flexion_l	hip_adduction_l	hip_rotation_l	knee_angle_l	ankle_angle_l	subtalar_angle_l	mtp_angle_l	lumbar_extension	lumbar_bending	lumbar_rotation
      1.13300000	      5.52295042	     -6.36636188	     -4.91067086	     -0.04944667	      1.00543184	      0.29734204	    -22.64324066	      5.88721845	     -2.84882918	     -4.11606433	      4.45612444	     -5.36601338	     -1.01338754	     15.57899431	     -8.23346451	    -10.16641792	      4.66673070	      2.80766502	    -11.44926001	    -16.28542960	    -18.38999533	      6.06910633	      7.77869104
      1.13716667	      5.64201166	     -6.27397775	     -5.22542055	     -0.04395298	      1.00507928	      0.29785379	    -23.00628579	      5.61787012	     -2.56834367	     -4.28619833	      4.37040857	     -5.41266323	     -0.60182564	     15.49215326	     -8.24098529	    -10.18197760	      4.13456128	      2.76795968	    -11.75519483	    -16.17089099	    -18.54080565	      5.73981073	      8.17640791
      1.14133333	      5.68945730	     -6.19629303	     -5.56870321	     -0.03849048	      1.00466735	      0.29839102	    -23.25145423	      5.35638737	     -2.25987313	     -4.54373540	      4.39726761	     -5.41047037	     -0.37565050	     15.48881237	     -8.27531065	    -10.18999742	      3.53318105	      2.64110768	    -12.16346969	    -16.10649929	    -18.61687390	      5.44295361	      8.40670976
      1.14550000	      5.79308231	     -6.09924725	     -5.89389050	     -0.03293680	      1.00437535	      0.29890975	    -23.57438730	      5.07252043	     -1.94758836	     -4.75681935	      4.37006250	     -5.41883579	     -0.16744853	     15.41765756	     -8.27694022	    -10.20744245	      2.89102427	      2.52602065	    -12.59585768	    -16.04496046	    -18.72780434	      5.11370943	      8.71504549
      1.14966667	      5.91859983	     -5.98749875	     -6.23186226	     -0.02737909	      1.00416895	      0.29942088	    -23.89406986	      4.75970501	     -1.64933982	     -5.00865872	      4.29458797	     -5.43663341	      0.04787937	     15.31613505	     -8.25933169	    -10.27496677	      2.22119197	      2.35042319	    -13.03139208	    -15.97968918	    -18.86882568	      4.75890260	      9.03753903
      1.15383333	      6.03592197	     -5.87684709	     -6.57569715	     -0.02178139	      1.00400726	      0.29994817	    -24.18765421	      4.44482940	     -1.36231068	     -5.28800914	      4.18749079	     -5.47144322	      0.29001590	     15.21200164	     -8.24263207	    -10.36921804	      1.54009877	      2.10804373	    -13.46960823	    -15.90418355	    -18.99554841	      4.39367368	      9.37790584
      1.15800000	      6.12080199	     -5.75706961	     -6.91072184	     -0.01612273	      1.00384620	      0.30042166	    -24.43334766	      4.12253737	     -1.08571628	     -5.58720432	      4.05872956	     -5.49246571	      0.51086987	     15.14003223	     -8.20999246	    -10.47801604	      0.84120293	      1.84232885	    -13.91695604	    -15.83447484	    -19.07394341	      4.03325842	      9.66811150
      1.16216667	      6.27105054	     -5.63635418	     -7.23812375	     -0.01050814	      1.00382638	      0.30084159	    -24.71675479	      3.78702535	     -0.84541109	     -5.93258390	      3.88833595	     -5.54937539	      0.84997804	     14.97977545	     -8.15965820	    -10.60244923	      0.17367950	      1.47757479	    -14.36441039	    -15.72394117	    -19.24897891	      3.66130384	     10.06345568
      1.16633333	      6.31720349	     -5.51577944	     -7.52800440	     -0.00475578	      1.00368108	      0.30117850	    -24.88987585	      3.47739120	     -0.65074433	     -6.27759216	      3.65390220	     -5.53954288	      0.98903531	     14.95074526	     -8.10917803	    -10.73252365	     -0.54500054	      1.19542304	    -14.76418130	    -15.68153777	    -19.25837829	      3.31788123	     10.18033005
      1.17050000	      6.47146542	     -5.40245862	     -7.91150029	      0.00096356	      1.00382070	      0.30174960	    -25.16818182	      3.13385353	     -0.28598373	     -6.61455314	      3.34714132	     -5.84152768	      7.48560095	     14.74688858	     -8.08595565	    -11.08054659	     -1.19198854	      0.74416935	    -15.06927430	    -13.36160080	    -19.41363921	      2.92831332	     10.76389730
      1.17466667	      6.50495012	     -5.23436486	     -8.15896710	      0.00683803	      1.00375741	      0.30188741	    -25.28083422	      2.77885249	     -0.21616555	     -7.03097723	      3.10015879	     -5.72118780	      7.51353157	     14.69058067	     -7.95114290	    -11.18983726	     -1.80349566	      0.21996817	    -15.56923243	    -13.34962426	    -19.39532079	      2.56406522	     10.82658515
      1.17883333	      6.65222987	     -5.07943233	     -8.36844742	      0.01263638	      1.00389351	      0.30192348	    -25.49961793	      2.43358050	     -0.16088052	     -7.46698432	      2.86546853	     -5.70790125	      7.60401618	     14.49886642	     -7.79608787	    -11.26611961	     -2.36922808	     -0.34995460	    -16.15844772	    -13.30802922	    -19.52188930	      2.20303158	     11.11465746
      1.18300000	      6.71260472	     -4.91748883	     -8.58749061	      0.01854399	      1.00397527	      0.30198699	    -25.60720509	      2.09530341	     -0.09038031	     -7.93238926	      2.53601036	     -5.73631515	      7.70683235	     14.39394553	     -7.65353129	    -11.43504957	     -2.93520047	     -0.90482002	    -16.57179742	    -13.26747573	    -19.53015042	      1.84584189	     11.27618663
      1.18716667	      6.77712466	     -4.74560092	     -8.77248498	      0.02450784	      1.00410703	      0.30197219	    -25.70693663	      1.75923729	     -0.06109365	     -8.41267915	      2.16558376	     -5.77255563	      7.82725451	     14.27973139	     -7.48871526	    -11.61444483	     -3.47771635	     -1.47831410	    -16.96382429	    -13.22379668	    -19.52947253	      1.48786510	     11.43833591
      1.19133333	      6.78586324	     -4.59217946	     -8.89973271	      0.03050182	      1.00420235	      0.30181702	    -25.72620694	      1.47192516	     -0.09125705	     -8.92815415	      1.68667239	     -5.79769665	      7.90169099	     14.24115085	     -7.34108270	    -11.77480524	     -4.03127852	     -2.02277011	    -17.18353849	    -13.20079176	    -19.47225517	      1.18621556	     11.51263745
      1.19550000	      6.84644069	     -4.39196478	     -9.05914324	      0.03652470	      1.00443955	      0.30164833	    -25.75202929	      1.11318688	     -0.13384258	     -9.52784199	      1.29917735	     -5.86818083	      8.08598981	     14.09379614	     -7.12333484	    -11.92858259	     -4.48481811	     -2.61667373	    -17.63413970	    -13.13978550	    -19.46552464	      0.81397381	     11.68891951
      1.19966667	      6.95030037	     -4.19778631	     -9.13701111	      0.04257272	      1.00476422	      0.30127816	    -25.81459871	      0.77557059	     -0.29097179	    -10.13155482	      0.78852759	     -5.83426422	      8.61065639	     13.90516369	     -6.88223756	    -12.03529104	     -4.91003573	     -3.24523866	    -17.98472673	    -12.95946064	    -19.51080640	      0.47841158	     11.81863007
      1.20383333	      6.92080300	     -3.99785993	     -9.17088747	      0.04874816	      1.00492876	      0.30090524	    -25.72676717	      0.49020353	     -0.43486635	    -10.76071916	      0.22202888	     -5.96471510	      8.71451629	     13.90230615	     -6.66930209	    -12.21216351	     -5.43421235	     -3.67084110	    -18.05547820	    -12.92773988	    -19.38258824	      0.16102382	     11.78472740
      1.20800000	      6.91520450	     -3.78692626	     -9.19780277	      0.05493742	      1.00518481	      0.30046973	    -25.62293655	      0.18798464	     -0.61641797	    -11.45920840	     -0.36942556	     -6.08632067	      8.83468142	     13.84393949	     -6.43122514	    -12.37016818	     -5.89361609	     -4.12351158	    -18.17604499	    -12.89287002	    -19.27712302	     -0.16633148	     11.77629899
